<?xml version="1.0" encoding="utf-8"?>
<!-- Generator: Adobe Illustrator 27.5.0, SVG Export Plug-In . SVG Version: 6.00 Build 0)  -->
<svg version="1.1" id="Layer_2_00000140692577643554230160000002355364772088276650_"
	 xmlns="http://www.w3.org/2000/svg" xmlns:xlink="http://www.w3.org/1999/xlink" x="0px" y="0px" viewBox="0 0 1357.2 627.9"
	 style="enable-background:new 0 0 1357.2 627.9;" xml:space="preserve">
<style type="text/css">
	.st0{fill:#111111;}
</style>
<g id="Layer_1-2">
	<g>
		<path class="st0" d="M1032.7,627.9c-0.4-0.1-0.9-0.3-1.3-0.3c-7.7-0.6-15.4-1-23.1-1.8c-14-1.4-27.8-4-41.4-7.4
			c-18-4.5-35.5-10.6-52.4-18.2c-26.6-12-51-27.4-73.4-46.1c-8.9-7.4-17.3-15.4-25.3-23.8c-11.7-12.3-22.3-25.4-31.9-39.4
			c-7.2-10.6-13.8-21.5-19.7-32.9c-12-23.1-20.9-47.4-26.9-72.8c-2.5-10.4-4.4-20.9-5.6-31.5c-0.8-7.2-1.3-14.4-1.9-21.6
			c-0.9-10.4-0.6-20.9-0.3-31.4c0.4-14.7,2.1-29.2,4.8-43.6c4.5-24.6,11.8-48.3,22-71.1c7.3-16.3,15.9-31.9,25.8-46.7
			c8.2-12.1,17-23.8,26.9-34.5c5.7-6.2,11.5-12.4,17.6-18.3c19.7-18.8,41.5-34.7,65.3-47.8c17.2-9.5,35.2-17.3,53.9-23.4
			c16.5-5.4,33.3-9.4,50.5-11.9c9.8-1.5,19.6-2.7,29.5-2.9c10.9-0.2,21.7-0.6,32.6-0.2c16,0.6,31.8,2.7,47.4,5.9
			c12.6,2.6,25,5.8,37.2,9.9c11.7,3.9,23.2,8.6,34.4,13.9c15,7.1,29.3,15.3,42.9,24.7c10.8,7.3,21.1,15.3,30.7,24
			c5.3,4.8,10.5,9.6,15.5,14.6c15.5,15.7,29.2,32.8,41.1,51.3c6.2,9.6,11.8,19.5,16.9,29.8c11.3,22.8,19.8,46.5,25.2,71.3
			c2.6,11.9,4.5,23.9,5.8,36.1c1.5,13.9,1.6,27.7,1.3,41.6c-0.1,5.3-0.1,10.5-0.6,15.8c-0.8,8.1-1.7,16.2-2.9,24.2
			c-2.2,14.1-5.4,28-9.5,41.7c-4.6,15.3-10.4,30.1-17.3,44.6c-7.4,15.4-16,30.2-25.8,44.2c-7.4,10.6-15.4,20.8-24.2,30.3
			c-4.1,4.5-8.2,9-12.5,13.2c-16,15.8-33.5,29.8-52.5,41.9c-9.8,6.2-20,12-30.5,17.1c-11.3,5.5-23,10.4-34.9,14.5
			c-18.4,6.4-37.2,11.1-56.4,13.8c-8.4,1.2-16.8,1.8-25.2,2.7c-3.3,0.3-6.7,0.4-10,0.6c-0.3,0-0.6,0.2-0.8,0.3L1032.7,627.9
			L1032.7,627.9z M733.3,311.6c0.1,6,0.6,12.4,1.8,18.8c4.7,24.2,16.8,43.8,36.7,58.4c15.3,11.2,32.5,17.2,51.3,19
			c14.9,1.4,29.6,0.3,43.9-3.9c22-6.5,40-18.8,52.8-38c15-22.5,19.6-47.5,14.6-73.8c-6.7-35.3-27.5-59.4-61-72
			c-25.6-9.6-51.6-9-77.3,0c-20.5,7.2-36.8,20-48.4,38.6C737.8,274.7,733.5,292.4,733.3,311.6L733.3,311.6z M1211.4,218.9
			c-23.4,60.9-46.7,121.7-70.1,182.5c0,0,0.1,0.1,0.1,0.2c0,0.1,0.1,0.1,0.2,0.2c0.3,0,0.7,0.1,1.1,0.1c15.7,0,31.3,0,47,0
			c1.4,0,2.1-0.5,2.6-1.8c2.9-7.4,5.9-14.9,8.9-22.3c1-2.4,2-4.9,3-7.3c0.8,0,1.4-0.1,2-0.1c20.5,0,40.9,0,61.4,0c2.2,0,2.2,0,3,2.2
			c3.4,8.9,6.7,17.8,10.1,26.7c0.3,0.8,0.7,1.6,1,2.5c1,0,1.8,0,2.7,0c15.9,0,31.8-0.1,47.7-0.1c0.1,0,0.1-0.1,0.2-0.1
			s0.1-0.1,0.2-0.4c-22.9-60.7-45.8-121.5-68.8-182.3L1211.4,218.9L1211.4,218.9z M947.1,219.1c25.7,61.1,51.3,122,76.9,182.7h37.5
			c26-60.9,51.9-121.7,77.9-182.7h-52c-14.7,36.6-29.4,73.2-44.2,110.3c-0.6-1.4-1-2.2-1.3-3c-13.9-35-27.8-70.1-41.8-105.1
			c-0.9-2.2-0.9-2.2-3.2-2.2c-15.7,0-31.3,0-47,0C949,219,948.3,219,947.1,219.1L947.1,219.1z"/>
		<path class="st0" d="M0,401.5c0.5-0.8,1.1-1.6,1.4-2.4c6.8-17.6,13.6-35.3,20.3-52.9c4.5-11.7,9-23.4,13.5-35
			c8.7-22.6,17.4-45.2,26.1-67.8c3.1-8.1,6.2-16.2,9.4-24.3c1.7-0.5,48.5-0.7,52.7-0.2c22.9,60.7,45.8,121.6,68.8,182.6h-51.4
			c-3.8-10.1-7.6-20.3-11.5-30.6c-0.7,0-1.5-0.2-2.3-0.2c-20.4,0-40.8,0-61.2,0c-2.2,0-2.2,0-3,2.2c-3.6,9-7.2,17.9-10.7,26.9
			c-0.3,0.7-0.6,1.4-1,2.3H0C0,401.9,0,401.7,0,401.5L0,401.5z M116,332.9c-6.4-18.8-12.7-37.4-19.1-55.9c-0.2,0-0.3,0-0.4,0
			c-6.4,18.6-12.9,37.1-19.3,55.9L116,332.9L116,332.9z"/>
		<path class="st0" d="M568.1,401.6h-47.4V219.3c0.5-0.1,1.2-0.2,1.8-0.2c14.6,0,29.3,0,43.9,0c1.4,0,2.2,0.5,3,1.5
			c20.1,25.5,40.2,51,60.2,76.5c7.8,9.9,15.6,19.8,23.4,29.7c0.5,0.7,1.1,1.3,2,2.4V219.6c1.9-0.6,44.7-0.8,48.2-0.3v182.3
			c-0.8,0-1.5,0.1-2.3,0.1c-14.5,0-29.1,0-43.7,0c-1.4,0-2.4-0.4-3.2-1.5c-12.5-15.9-25-31.9-37.5-47.8
			c-11.2-14.2-22.4-28.5-33.6-42.7c-4.2-5.4-8.5-10.8-12.7-16.2c-0.5-0.7-1.1-1.3-2.1-1.8L568.1,401.6L568.1,401.6z"/>
		<path class="st0" d="M305.7,401.4c-14.6-22.7-29.4-45.5-44.1-68.4c-0.2,0-0.3,0.1-0.5,0.1v68.5h-47.6c0-1,0-1.9,0-2.8
			c0-58.9,0-117.8,0-176.7c0-0.4,0-0.8,0-1.2c0.1-2,0.1-2.1,2.2-2.1c20.9,0,41.7-0.1,62.6,0c7.9,0.1,15.8,0.4,23.7,1
			c10.5,0.8,19.9,4.4,27.8,11.5c6.1,5.4,10.5,12,13.5,19.5c3.6,8.8,5.9,17.9,5.5,27.5c-0.6,15.7-6.7,28.8-19.3,38.4
			c-5.3,4-11.1,7.5-16.7,11.2c-0.7,0.4-1.3,0.9-2.2,1.6c18.2,24,36.4,47.9,54.8,72L305.7,401.4L305.7,401.4z M261.7,255.8v44.1
			c0.6,0.1,1,0.2,1.5,0.2c4.5-0.1,9.1,0,13.6-0.3c7.8-0.6,14.2-3.9,18.4-10.8c2.5-4.1,3.9-8.5,3.3-13.4c-0.9-8.6-8.2-17.8-18.8-19.5
			C273.9,255.2,267.9,255.5,261.7,255.8L261.7,255.8z"/>
		<path class="st0" d="M386.4,218.9h103.5c0.5,1.7,0.6,36.4,0.1,39.5c-18.5,0-37,0-55.6,0v31c0.9,0,1.8,0.1,2.7,0.1
			c15.6,0,31.2,0,46.8,0h3v40.3H434v31.8h55.6c0.5,1.9,0.6,36.9,0.2,40.2H386.4L386.4,218.9L386.4,218.9z"/>
		<path class="st0" d="M886.8,310.6c0,28.3-23.3,51.5-51.9,51.6c-28.8,0.1-51.8-22.6-51.8-51.1c0-28.8,22.7-51.4,51.8-51.4
			C863.3,259.6,886.8,282.6,886.8,310.6L886.8,310.6z"/>
		<path class="st0" d="M1237.5,276.7c6.3,18.6,12.7,37.3,19.1,56.1h-39.1c6.5-18.8,13-37.5,19.4-56.1
			C1237.2,276.7,1237.4,276.7,1237.5,276.7L1237.5,276.7z"/>
	</g>
</g>
</svg>
